# xmcd
#
# Track frame offsets:
#	150
#	21545
#	45765
#
# Disc length: 1139 seconds
#
# Revision: 2
# Processed by: cddbd v1.5.2PL0 Copyright (c) Steve Scherf et al.
# Submitted via: audiograbber 1.83.01
#
DISCID=1a047103
DTITLE=Vaughan, Stevie Ray - Riviera paradise
DYEAR=1989
DGENRE=
TTITLE0=Riviera paradise (Edit)
TTITLE1=Two rivers (J. Beck with T. Bozzio and T. Hymas)
TTITLE2=Riviera paradise (LP version)
EXTD=
EXTT0=
EXTT1=
EXTT2=
PLAYORDER=
